<svg xmlns="http://www.w3.org/2000/svg" viewBox="0 0 4568.44 1510.58"><defs><style>.cls-1{isolation:isolate;}.cls-2{fill:#fff70d;}.cls-3{fill:#da08ff;}.cls-3,.cls-4{mix-blend-mode:multiply;}.cls-4{fill:#05ffed;}.cls-5{fill:none;}</style></defs><title>lani-text</title><g class="cls-1"><g id="图层_2" data-name="图层 2"><g id="图层_4" data-name="图层 4"><polygon class="cls-2" points="558.36 173.23 164.78 1309.63 1395.69 1184.91 558.36 173.23"/><polygon class="cls-3" points="184.18 1029.69 317.91 436.54 893.73 331.22 1274.29 918.11 677.54 1383.08 184.18 1029.69"/><circle class="cls-4" cx="796.38" cy="784.74" r="508.26"/><rect class="cls-5" width="1510.58" height="1510.58"/><path d="M1854.63,1161.3H1688.32V424.12h166.31ZM4338,424.12H4171.68V1161.3H4338Zm-321.77,0H3849.92V1161.3h166.31Zm-659.27,0H3190.65V1161.3H3357Zm-480.15,737.17L2864,1087a75.64,75.64,0,0,0-74.55-62.82H2615.79a75.66,75.66,0,0,0-74.56,62.82l-12.78,74.27Zm-683.28,0L2180.74,1087a75.65,75.65,0,0,0-74.55-62.82H1974.33a75.64,75.64,0,0,0-74.55,62.82L1887,1161.29Zm1622.7-24.21a1,1,0,0,1-.13-.3l-17.4-48.18-25.29-70L3610.28,566.83l-44.6-123.48a29.07,29.07,0,0,0-27.34-19.22H3355.89a37.06,37.06,0,0,1,34.75,24.21,1,1,0,0,1,.14.3l17.4,48.17,25.28,70,163.13,451.75,44.6,123.49a29.09,29.09,0,0,0,27.35,19.22H3851A37.07,37.07,0,0,1,3816.23,1137.08Zm-671.62,0a1,1,0,0,1-.13-.3l-17.4-48.18-25.28-70L2938.66,566.83l-44.6-123.48a29.07,29.07,0,0,0-27.34-19.22H2684.27A37.08,37.08,0,0,1,2719,448.34a1.3,1.3,0,0,1,.13.3l17.4,48.17,25.28,70L2925,1018.58l44.6,123.49a29.06,29.06,0,0,0,27.34,19.22h182.45A37.08,37.08,0,0,1,3144.61,1137.08ZM2721,424.13H2538.54a29.06,29.06,0,0,0-27.34,19.22l-44.61,123.48-163.13,451.75-25.28,70-17.4,48.18a1.3,1.3,0,0,1-.13.3,37.08,37.08,0,0,1-34.76,24.21h182.45a29.07,29.07,0,0,0,27.34-19.22l44.6-123.49,163.14-451.75,25.28-70,17.4-48.17a1,1,0,0,1,.13-.3A37.07,37.07,0,0,1,2721,424.13Z"/><rect class="cls-5" width="4568.44" height="1510.58"/></g></g></g></svg>